<svg width="13" height="15" viewBox="0 0 13 15" fill="none" xmlns="http://www.w3.org/2000/svg">
<path d="M12.6058 4.98542C11.862 1.71292 9.00745 0.239586 6.49995 0.239586C6.49995 0.239586 6.49995 0.239586 6.49286 0.239586C3.99245 0.239586 1.13078 1.70584 0.387029 4.97834C-0.441721 8.63334 1.79661 11.7288 3.82245 13.6767C4.57328 14.3992 5.53661 14.7604 6.49995 14.7604C7.46328 14.7604 8.42661 14.3992 9.17036 13.6767C11.1962 11.7288 13.4345 8.64042 12.6058 4.98542ZM6.49995 8.53417C5.26745 8.53417 4.2687 7.53542 4.2687 6.30292C4.2687 5.07042 5.26745 4.07167 6.49995 4.07167C7.73245 4.07167 8.7312 5.07042 8.7312 6.30292C8.7312 7.53542 7.73245 8.53417 6.49995 8.53417Z" fill="#71B1A1"/>
</svg>
