<svg width="18" height="18" viewBox="0 0 18 18" fill="none" xmlns="http://www.w3.org/2000/svg">
<path d="M13.1667 0.666656H4.83341C2.53341 0.666656 0.666748 2.52499 0.666748 4.81666V9.79999V10.6333C0.666748 12.925 2.53341 14.7833 4.83341 14.7833H6.08341C6.30841 14.7833 6.60841 14.9333 6.75008 15.1167L8.00008 16.775C8.55008 17.5083 9.45008 17.5083 10.0001 16.775L11.2501 15.1167C11.4084 14.9083 11.6584 14.7833 11.9167 14.7833H13.1667C15.4667 14.7833 17.3334 12.925 17.3334 10.6333V4.81666C17.3334 2.52499 15.4667 0.666656 13.1667 0.666656ZM5.66675 8.99999C5.20008 8.99999 4.83341 8.62499 4.83341 8.16666C4.83341 7.70832 5.20841 7.33332 5.66675 7.33332C6.12508 7.33332 6.50008 7.70832 6.50008 8.16666C6.50008 8.62499 6.13341 8.99999 5.66675 8.99999ZM9.00008 8.99999C8.53341 8.99999 8.16675 8.62499 8.16675 8.16666C8.16675 7.70832 8.54175 7.33332 9.00008 7.33332C9.45841 7.33332 9.83341 7.70832 9.83341 8.16666C9.83341 8.62499 9.46675 8.99999 9.00008 8.99999ZM12.3334 8.99999C11.8667 8.99999 11.5001 8.62499 11.5001 8.16666C11.5001 7.70832 11.8751 7.33332 12.3334 7.33332C12.7917 7.33332 13.1667 7.70832 13.1667 8.16666C13.1667 8.62499 12.8001 8.99999 12.3334 8.99999Z" fill="#121212"/>
</svg>
